<svg width="20" height="20" viewBox="0 0 20 20" fill="none" xmlns="http://www.w3.org/2000/svg">
<path fill-rule="evenodd" clip-rule="evenodd" d="M1.66797 2.49984C1.66797 2.0396 2.04106 1.6665 2.5013 1.6665H5.0013C5.46154 1.6665 5.83464 2.0396 5.83464 2.49984V4.99984C5.83464 5.46007 5.46154 5.83317 5.0013 5.83317H2.5013C2.04106 5.83317 1.66797 5.46007 1.66797 4.99984V2.49984ZM1.66797 8.74984C1.66797 8.2896 2.04106 7.9165 2.5013 7.9165H5.0013C5.46154 7.9165 5.83464 8.2896 5.83464 8.74984V11.2498C5.83464 11.7101 5.46154 12.0832 5.0013 12.0832H2.5013C2.04106 12.0832 1.66797 11.7101 1.66797 11.2498V8.74984ZM2.5013 14.1665C2.04106 14.1665 1.66797 14.5396 1.66797 14.9998V17.4998C1.66797 17.9601 2.04106 18.3332 2.5013 18.3332H5.0013C5.46154 18.3332 5.83464 17.9601 5.83464 17.4998V14.9998C5.83464 14.5396 5.46154 14.1665 5.0013 14.1665H2.5013ZM14.168 2.49984C14.168 2.0396 14.5411 1.6665 15.0013 1.6665H17.5013C17.9615 1.6665 18.3346 2.0396 18.3346 2.49984V4.99984C18.3346 5.46007 17.9615 5.83317 17.5013 5.83317H15.0013C14.5411 5.83317 14.168 5.46007 14.168 4.99984V2.49984ZM15.0013 7.9165C14.5411 7.9165 14.168 8.2896 14.168 8.74984V11.2498C14.168 11.7101 14.5411 12.0832 15.0013 12.0832H17.5013C17.9615 12.0832 18.3346 11.7101 18.3346 11.2498V8.74984C18.3346 8.2896 17.9615 7.9165 17.5013 7.9165H15.0013ZM14.168 14.9998C14.168 14.5396 14.5411 14.1665 15.0013 14.1665H17.5013C17.9615 14.1665 18.3346 14.5396 18.3346 14.9998V17.4998C18.3346 17.9601 17.9615 18.3332 17.5013 18.3332H15.0013C14.5411 18.3332 14.168 17.9601 14.168 17.4998V14.9998ZM8.7513 1.6665C8.29106 1.6665 7.91797 2.0396 7.91797 2.49984V4.99984C7.91797 5.46007 8.29106 5.83317 8.7513 5.83317H11.2513C11.7115 5.83317 12.0846 5.46007 12.0846 4.99984V2.49984C12.0846 2.0396 11.7115 1.6665 11.2513 1.6665H8.7513ZM7.91797 8.74984C7.91797 8.2896 8.29106 7.9165 8.7513 7.9165H11.2513C11.7115 7.9165 12.0846 8.2896 12.0846 8.74984V11.2498C12.0846 11.7101 11.7115 12.0832 11.2513 12.0832H8.7513C8.29106 12.0832 7.91797 11.7101 7.91797 11.2498V8.74984ZM8.7513 14.1665C8.29106 14.1665 7.91797 14.5396 7.91797 14.9998V17.4998C7.91797 17.9601 8.29106 18.3332 8.7513 18.3332H11.2513C11.7115 18.3332 12.0846 17.9601 12.0846 17.4998V14.9998C12.0846 14.5396 11.7115 14.1665 11.2513 14.1665H8.7513Z" fill="#3B4758"/>
</svg>
