<svg width="19" height="20" viewBox="0 0 19 20" fill="none" xmlns="http://www.w3.org/2000/svg">
<path fill-rule="evenodd" clip-rule="evenodd" d="M13.425 15.2235C10.2865 17.666 5.74766 17.4456 2.86261 14.5606C-0.261365 11.4366 -0.261625 6.37112 2.86261 3.24689C5.98685 0.122653 11.0523 0.122912 14.1763 3.24689C17.0614 6.13194 17.2817 10.6707 14.8392 13.8093L18.419 17.389C18.6068 17.5768 18.7049 17.8212 18.7112 18.0663C18.719 18.3319 18.6218 18.6004 18.419 18.8032C18.0285 19.1937 17.3956 19.1941 17.0047 18.8032L13.425 15.2235ZM12.7621 4.6611C15.1058 7.00477 15.1053 10.8032 12.7621 13.1464C10.419 15.4895 6.6205 15.4901 4.27682 13.1464C1.93315 10.8027 1.93367 7.00426 4.27682 4.6611C6.61998 2.31795 10.4184 2.31743 12.7621 4.6611Z" fill="white"/>
</svg>
