<svg width="31" height="30" viewBox="0 0 31 30" fill="none" xmlns="http://www.w3.org/2000/svg">
<path fill-rule="evenodd" clip-rule="evenodd" d="M11.6172 21C10.5172 21 9.62719 21.9 9.62719 23C9.62719 24.1 10.5172 25 11.6172 25C12.7172 25 13.6172 24.1 13.6172 23C13.6172 21.9 12.7172 21 11.6172 21ZM5.61719 6C5.61719 6.55 6.06719 7 6.61719 7H7.61719L11.2172 14.59L9.86719 17.03C9.13719 18.37 10.0972 20 11.6172 20H22.6172C23.1672 20 23.6172 19.55 23.6172 19C23.6172 18.45 23.1672 18 22.6172 18H11.6172L12.7172 16H20.1672C20.9172 16 21.5772 15.59 21.9172 14.97L25.4972 8.48C25.8672 7.82 25.3872 7 24.6272 7H9.82719L9.15719 5.57C8.99719 5.22 8.63719 5 8.25719 5H6.61719C6.06719 5 5.61719 5.45 5.61719 6ZM21.6172 21C20.5172 21 19.6272 21.9 19.6272 23C19.6272 24.1 20.5172 25 21.6172 25C22.7172 25 23.6172 24.1 23.6172 23C23.6172 21.9 22.7172 21 21.6172 21Z" fill="#586A84"/>
</svg>
