<svg width="31" height="30" viewBox="0 0 31 30" fill="none" xmlns="http://www.w3.org/2000/svg">
<path d="M23.5764 15.2933C23.3991 15.7658 22.9598 16.0711 22.4567 16.0711H22.0474V21.9643C22.0474 22.26 21.8074 22.5 21.5117 22.5H18.2973V18.7498C18.2973 17.2728 17.0956 16.0711 15.6186 16.0711C14.1415 16.0711 12.9399 17.2728 12.9399 18.7498V22.5H9.72546C9.42973 22.5 9.18972 22.26 9.18972 21.9643V16.0711H8.77988C8.27682 16.0711 7.83751 15.7663 7.66019 15.2938C7.48286 14.8213 7.61304 14.3016 7.99234 13.9705L14.2492 8.04525C15.0175 7.31825 16.2202 7.31825 16.9879 8.04525L23.2598 13.9844C23.623 14.3011 23.7538 14.8207 23.5764 15.2933Z" fill="#586A84"/>
</svg>
