<svg width="31" height="30" viewBox="0 0 31 30" fill="none" xmlns="http://www.w3.org/2000/svg">
<path d="M21.4751 16.7996C21.9697 16.1737 22.2402 15.4 22.2433 14.6022C22.2433 13.8898 22.0321 13.1933 21.6363 12.6009C21.2405 12.0086 20.6779 11.5468 20.0197 11.2742C19.3615 11.0016 18.6372 10.9302 17.9385 11.0692C17.2397 11.2082 16.5979 11.5513 16.0941 12.0551C15.5903 12.5588 15.2473 13.2007 15.1083 13.8995C14.9693 14.5982 15.0406 15.3225 15.3133 15.9807C15.5859 16.6389 16.0476 17.2015 16.64 17.5973C17.2323 17.9932 17.9288 18.2044 18.6412 18.2044C19.439 18.2013 20.2126 17.9308 20.8385 17.4362L23.276 19.8736C23.3609 19.9556 23.4746 20.001 23.5927 20C23.7108 19.999 23.8237 19.9516 23.9072 19.8681C23.9907 19.7846 24.038 19.6717 24.039 19.5536C24.0401 19.4356 23.9947 19.3218 23.9127 19.2369L21.4751 16.7996ZM15.9396 14.6022C15.9396 14.0679 16.098 13.5455 16.3949 13.1013C16.6918 12.657 17.1137 12.3107 17.6073 12.1062C18.101 11.9017 18.6442 11.8482 19.1683 11.9525C19.6923 12.0567 20.1737 12.314 20.5515 12.6919C20.9294 13.0697 21.1867 13.5511 21.2909 14.0751C21.3951 14.5992 21.3416 15.1424 21.1372 15.6361C20.9327 16.1298 20.5864 16.5517 20.1421 16.8486C19.6979 17.1454 19.1755 17.3039 18.6412 17.3039C17.9249 17.3031 17.2382 17.0182 16.7317 16.5117C16.2253 16.0052 15.9404 15.3185 15.9396 14.6022Z" fill="#586A84"/>
<path d="M23.5701 7.00195H7.70339C7.5531 7.00195 7.40896 7.15999 7.30269 7.44129C7.19642 7.7226 7.13672 8.10413 7.13672 8.50195C7.13672 8.89978 7.19642 9.28131 7.30269 9.56261C7.40896 9.84392 7.5531 10.002 7.70339 10.002H23.5701C23.7203 10.002 23.8645 9.84392 23.9707 9.56261C24.077 9.28131 24.1367 8.89978 24.1367 8.50195C24.1367 8.10413 24.077 7.7226 23.9707 7.44129C23.8645 7.15999 23.7203 7.00195 23.5701 7.00195Z" fill="#586A84"/>
<path d="M7.96094 17.002H12.4609C12.6598 17.002 12.8506 16.8439 12.9913 16.5626C13.1319 16.2813 13.2109 15.8998 13.2109 15.502C13.2109 15.1041 13.1319 14.7226 12.9913 14.4413C12.8506 14.16 12.6598 14.002 12.4609 14.002H7.96094C7.76203 14.002 7.57126 14.16 7.43061 14.4413C7.28996 14.7226 7.21094 15.1041 7.21094 15.502C7.21094 15.8998 7.28996 16.2813 7.43061 16.5626C7.57126 16.8439 7.76203 17.002 7.96094 17.002Z" fill="#586A84"/>
<path d="M7.6849 22.998H20.5182C20.6729 22.998 20.8213 22.84 20.9307 22.5587C21.0401 22.2774 21.1016 21.8959 21.1016 21.498C21.1016 21.1002 21.0401 20.7187 20.9307 20.4374C20.8213 20.1561 20.6729 19.998 20.5182 19.998H7.6849C7.53019 19.998 7.38181 20.1561 7.27242 20.4374C7.16302 20.7187 7.10156 21.1002 7.10156 21.498C7.10156 21.8959 7.16302 22.2774 7.27242 22.5587C7.38181 22.84 7.53019 22.998 7.6849 22.998Z" fill="#586A84"/>
</svg>
