<svg width="20" height="20" viewBox="0 0 20 20" fill="none" xmlns="http://www.w3.org/2000/svg">
<path fill-rule="evenodd" clip-rule="evenodd" d="M2.5013 1.6665C2.04106 1.6665 1.66797 2.0396 1.66797 2.49984V4.99984C1.66797 5.46007 2.04106 5.83317 2.5013 5.83317H5.0013C5.46154 5.83317 5.83464 5.46007 5.83464 4.99984V2.49984C5.83464 2.0396 5.46154 1.6665 5.0013 1.6665H2.5013ZM2.5013 7.9165C2.04106 7.9165 1.66797 8.2896 1.66797 8.74984V11.2498C1.66797 11.7101 2.04106 12.0832 2.5013 12.0832H5.0013C5.46154 12.0832 5.83464 11.7101 5.83464 11.2498V8.74984C5.83464 8.2896 5.46154 7.9165 5.0013 7.9165H2.5013ZM1.66797 14.9998C1.66797 14.5396 2.04106 14.1665 2.5013 14.1665H5.0013C5.46154 14.1665 5.83464 14.5396 5.83464 14.9998V17.4998C5.83464 17.9601 5.46154 18.3332 5.0013 18.3332H2.5013C2.04106 18.3332 1.66797 17.9601 1.66797 17.4998V14.9998ZM8.33464 1.6665C7.8744 1.6665 7.5013 2.0396 7.5013 2.49984V4.99984C7.5013 5.46007 7.8744 5.83317 8.33463 5.83317H17.5013C17.9615 5.83317 18.3346 5.46007 18.3346 4.99984V2.49984C18.3346 2.0396 17.9615 1.6665 17.5013 1.6665H8.33464ZM7.5013 8.74984C7.5013 8.2896 7.8744 7.9165 8.33464 7.9165H17.5013C17.9615 7.9165 18.3346 8.2896 18.3346 8.74984V11.2498C18.3346 11.7101 17.9615 12.0832 17.5013 12.0832H8.33463C7.8744 12.0832 7.5013 11.7101 7.5013 11.2498V8.74984ZM8.33464 14.1665C7.8744 14.1665 7.5013 14.5396 7.5013 14.9998V17.4998C7.5013 17.9601 7.8744 18.3332 8.33463 18.3332H17.5013C17.9615 18.3332 18.3346 17.9601 18.3346 17.4998V14.9998C18.3346 14.5396 17.9615 14.1665 17.5013 14.1665H8.33464Z" fill="#586A84"/>
</svg>
