<svg width="18" height="18" viewBox="0 0 18 18" fill="none" xmlns="http://www.w3.org/2000/svg">
<path d="M17 3.66645H15.2222M17 8.99978H12.5556M17 14.3331H12.5556M4.55556 16.1109V10.3875C4.55556 10.2026 4.55556 10.1102 4.5374 10.0217C4.52131 9.94334 4.49468 9.86743 4.45824 9.79605C4.41716 9.71569 4.35941 9.64352 4.2439 9.49907L1.31165 5.83379C1.19614 5.68941 1.13839 5.61721 1.09732 5.53682C1.06088 5.4655 1.03425 5.38958 1.01815 5.31113C1 5.2227 1 5.13025 1 4.94534V3.31089C1 2.81307 1 2.56416 1.09688 2.37401C1.18211 2.20676 1.31809 2.07078 1.48534 1.98555C1.67548 1.88867 1.9244 1.88867 2.42222 1.88867H10.2444C10.7423 1.88867 10.9912 1.88867 11.1813 1.98555C11.3486 2.07078 11.4845 2.20676 11.5698 2.37401C11.6667 2.56416 11.6667 2.81307 11.6667 3.31089V4.94534C11.6667 5.13025 11.6667 5.2227 11.6485 5.31113C11.6324 5.38958 11.6058 5.4655 11.5693 5.53682C11.5283 5.61721 11.4705 5.68941 11.355 5.83379L8.42276 9.49907C8.30729 9.64352 8.24951 9.71569 8.20844 9.79605C8.172 9.86743 8.14533 9.94334 8.12924 10.0217C8.11111 10.1102 8.11111 10.2026 8.11111 10.3875V13.4442L4.55556 16.1109Z" stroke="#586A84" stroke-width="2" stroke-linecap="round" stroke-linejoin="round"/>
</svg>
