<svg width="44" height="44" viewBox="0 0 44 44" fill="none" xmlns="http://www.w3.org/2000/svg">
<path d="M44 34.6541C44.0043 37.1168 43.0292 39.4803 41.2891 41.2247C39.5491 42.9691 37.1867 43.9515 34.7216 43.9558L9.35519 44C6.89011 44.0043 4.52428 43.0301 2.77816 41.2918C1.03204 39.5535 0.0486577 37.1934 0.0443527 34.7307L1.41671e-05 9.34588C-0.00428675 6.88322 0.970838 4.51973 2.71087 2.77533C4.45091 1.03094 6.81332 0.0485267 9.27841 0.044226L34.6448 1.41531e-05C37.1099 -0.00428252 39.4757 0.969883 41.2218 2.7082C42.968 4.44652 43.9513 6.8066 43.9556 9.26925L44 34.6541ZM41.7435 21.9956C41.7435 16.7668 39.6643 11.7522 35.9633 8.05483C32.2623 4.35749 27.2427 2.28035 22.0087 2.28035C16.7747 2.28035 11.7551 4.35749 8.05412 8.05483C4.35313 11.7522 2.27393 16.7668 2.27393 21.9956C2.27393 27.2245 4.35313 32.2391 8.05412 35.9365C11.7551 39.6338 16.7747 41.7109 22.0087 41.7109C27.2427 41.7109 32.2623 39.6338 35.9633 35.9365C39.6643 32.2391 41.7435 27.2245 41.7435 21.9956Z" fill="#9E00FF"/>
<path d="M23.2963 20.9264C19.9841 17.4815 15.2082 17.5554 11.7987 20.774C11.7609 20.8094 11.7156 20.8339 11.6669 20.8454C11.6183 20.8569 11.5678 20.855 11.5199 20.8399C11.4721 20.8247 11.4285 20.7969 11.393 20.7588C11.3574 20.7207 11.3312 20.6736 11.3165 20.6216C9.60748 14.3136 15.1194 8.69361 20.6609 11.9585C23.5515 13.6609 24.5654 16.6056 23.7024 20.7925C23.6937 20.8383 23.6738 20.8807 23.6448 20.9151C23.6158 20.9496 23.5787 20.975 23.5373 20.9886C23.496 21.0022 23.4519 21.0037 23.4095 20.9927C23.3671 20.9818 23.3281 20.9589 23.2963 20.9264Z" fill="#9E00FF"/>
<path d="M24.1435 11.4615C28.0234 9.92023 31.7188 12.4179 32.7464 16.3073C34.0719 21.3299 29.9865 25.3915 25.4774 24.9699C24.9544 24.9215 24.5056 24.7795 24.1309 24.5438C23.9827 24.4531 23.9603 24.3353 24.0638 24.1902C26.9972 20.0561 26.993 15.9265 24.0512 11.8014C24.0317 11.7746 24.0185 11.743 24.0126 11.7094C24.0067 11.6758 24.0083 11.6411 24.0173 11.608C24.0263 11.5749 24.0424 11.5444 24.0643 11.5189C24.0862 11.4935 24.1134 11.4738 24.1435 11.4615Z" fill="#9E00FF"/>
<path d="M19.929 21.8793C16.8783 25.7443 17.1242 30.1002 19.8457 34.1318C19.9401 34.276 19.9123 34.3826 19.7623 34.4517C14.5527 36.8301 9.45986 31.0327 11.4353 25.492C12.7398 21.8433 16.299 20.2171 19.7873 21.3613C19.8347 21.376 19.8779 21.4034 19.9129 21.441C19.9479 21.4786 19.9736 21.5253 19.9877 21.5768C20.0018 21.6282 20.0038 21.6829 19.9936 21.7357C19.9833 21.7886 19.9611 21.8379 19.929 21.8793Z" fill="#9E00FF"/>
<path d="M20.0161 25.1524C23.4317 28.5331 28.6924 27.9813 32.0854 25.0495C32.1086 25.0285 32.1362 25.0136 32.166 25.0059C32.1959 24.9982 32.227 24.998 32.2569 25.0053C32.2868 25.0127 32.3146 25.0273 32.338 25.0479C32.3614 25.0686 32.3797 25.0948 32.3914 25.1243C35.636 32.7508 25.0743 38.8622 20.3401 32.0494C19.0741 30.2258 18.7051 28.0109 19.2331 25.4049C19.25 25.3196 19.2885 25.2407 19.3447 25.1762C19.401 25.1117 19.4728 25.0641 19.5528 25.0383C19.6328 25.0125 19.718 25.0095 19.7995 25.0295C19.881 25.0496 19.9558 25.092 20.0161 25.1524Z" fill="#9E00FF"/>
</svg>
