<svg width="28" height="34" viewBox="0 0 28 34" fill="none" xmlns="http://www.w3.org/2000/svg">
<path fill-rule="evenodd" clip-rule="evenodd" d="M14.0013 33.6666C6.81299 31.4596 1.55176 24.7311 0.667969 18.6666V6.99998L14.0013 0.333313L27.3346 6.99998V18.6666C26.4508 24.7311 21.1896 31.4596 14.0013 33.6666ZM19.0013 27.0883V27H19.0965L19.0013 27.0883ZM6.32232 18.3809C5.67092 17.7295 5.6715 16.6747 6.32232 16.0239C6.97315 15.373 8.02794 15.3724 8.67935 16.0239L12.2149 19.5594L19.2859 12.4883C19.9368 11.8375 20.9916 11.8369 21.643 12.4883C22.2944 13.1397 22.2938 14.1945 21.643 14.8453L13.3934 23.0949C12.7426 23.7457 11.6878 23.7463 11.0364 23.0949L6.32232 18.3809Z" fill="#17B5BF"/>
</svg>
