<svg width="34" height="34" viewBox="0 0 34 34" fill="none" xmlns="http://www.w3.org/2000/svg">
<path fill-rule="evenodd" clip-rule="evenodd" d="M17.2614 0.979896C17.5585 1.13397 17.8351 1.3361 18.0768 1.57778L32.4215 15.9225C33.7243 17.2253 33.7233 19.3347 32.4215 20.6365L20.6364 32.4216C19.3346 33.7234 17.2252 33.7244 15.9224 32.4216L1.57766 18.0769C0.953879 17.4532 0.601419 16.6041 0.601563 15.7201V3.93495C0.601275 2.09381 2.09369 0.601397 3.93483 0.601685H15.7199C16.2623 0.602548 16.7895 0.733605 17.2614 0.979896ZM11.2083 11.2084C12.5101 9.90663 12.5111 7.79719 11.2083 6.49438C9.9055 5.19158 7.79606 5.19258 6.49426 6.49438C5.19246 7.79618 5.19145 9.90562 6.49426 11.2084C7.79707 12.5112 9.90651 12.5102 11.2083 11.2084Z" fill="#E4003F"/>
</svg>
