<svg width="34" height="28" viewBox="0 0 34 28" fill="none" xmlns="http://www.w3.org/2000/svg">
<path d="M0.332031 2.33332C0.332031 1.41285 1.07822 0.666656 1.9987 0.666656H18.6654C19.5858 0.666656 20.332 1.41285 20.332 2.33332V24H15.332C14.4116 24 13.6926 23.2333 13.3914 22.3635C12.7136 20.4058 10.8537 19 8.66536 19C6.47706 19 4.61711 20.4058 3.93932 22.3635C3.63817 23.2333 2.91917 24 1.9987 24C1.07822 24 0.332031 23.2538 0.332031 22.3333V2.33332Z" fill="#0DA678"/>
<path d="M11.9987 24C11.9987 22.159 10.5063 20.6667 8.66536 20.6667C6.82444 20.6667 5.33203 22.159 5.33203 24C5.33203 25.841 6.82444 27.3333 8.66536 27.3333C10.5063 27.3333 11.9987 25.841 11.9987 24Z" fill="#0DA678"/>
<path fill-rule="evenodd" clip-rule="evenodd" d="M20.332 2.33332L32.7441 8.53933C33.3087 8.82165 33.6654 9.39876 33.6654 10.03V23.1667C33.6654 23.6269 33.2923 24 32.832 24C32.3718 24 32.006 23.6241 31.9301 23.1701C31.5349 20.8037 29.4774 19 26.9987 19C24.8104 19 22.9504 20.4058 22.2726 22.3635C21.9715 23.2333 21.2525 24 20.332 24V2.33332ZM21.9987 8.36338C21.9987 7.12441 23.3026 6.31858 24.4107 6.87267L31.0774 10.206C31.642 10.4883 31.9987 11.0654 31.9987 11.6967V12.3333C31.9987 13.2538 31.2525 14 30.332 14H23.6654C22.7449 14 21.9987 13.2538 21.9987 12.3333V8.36338Z" fill="#0DA678"/>
<path d="M30.332 24C30.332 22.159 28.8396 20.6667 26.9987 20.6667C25.1578 20.6667 23.6654 22.159 23.6654 24C23.6654 25.841 25.1578 27.3333 26.9987 27.3333C28.8396 27.3333 30.332 25.841 30.332 24Z" fill="#0DA678"/>
</svg>
