<svg width="253" height="44" viewBox="0 0 253 44" fill="none" xmlns="http://www.w3.org/2000/svg">
<path d="M44 34.6541C44.0043 37.1168 43.0292 39.4803 41.2891 41.2247C39.5491 42.9691 37.1867 43.9515 34.7216 43.9558L9.35519 44C6.89011 44.0043 4.52428 43.0301 2.77816 41.2918C1.03204 39.5535 0.0486577 37.1934 0.0443527 34.7307L1.41671e-05 9.34588C-0.00428675 6.88322 0.970838 4.51973 2.71087 2.77533C4.45091 1.03094 6.81332 0.0485267 9.27841 0.044226L34.6448 1.41531e-05C37.1099 -0.00428252 39.4757 0.969883 41.2218 2.7082C42.968 4.44652 43.9513 6.8066 43.9556 9.26925L44 34.6541ZM41.7435 21.9956C41.7435 16.7668 39.6643 11.7522 35.9633 8.05483C32.2623 4.35749 27.2427 2.28035 22.0087 2.28035C16.7747 2.28035 11.7551 4.35749 8.05412 8.05483C4.35313 11.7522 2.27393 16.7668 2.27393 21.9956C2.27393 27.2245 4.35313 32.2391 8.05412 35.9365C11.7551 39.6338 16.7747 41.7109 22.0087 41.7109C27.2427 41.7109 32.2623 39.6338 35.9633 35.9365C39.6643 32.2391 41.7435 27.2245 41.7435 21.9956Z" fill="#9E00FF"/>
<path d="M23.2963 20.9264C19.9841 17.4815 15.2082 17.5554 11.7987 20.774C11.7609 20.8094 11.7156 20.8339 11.6669 20.8454C11.6183 20.8569 11.5678 20.855 11.5199 20.8399C11.4721 20.8247 11.4285 20.7969 11.393 20.7588C11.3574 20.7207 11.3312 20.6736 11.3165 20.6216C9.60748 14.3136 15.1194 8.69361 20.6609 11.9585C23.5515 13.6609 24.5654 16.6056 23.7024 20.7925C23.6937 20.8383 23.6738 20.8807 23.6448 20.9151C23.6158 20.9496 23.5787 20.975 23.5373 20.9886C23.496 21.0022 23.4519 21.0037 23.4095 20.9927C23.3671 20.9818 23.3281 20.9589 23.2963 20.9264Z" fill="#9E00FF"/>
<path d="M24.1435 11.4615C28.0234 9.92023 31.7188 12.4179 32.7464 16.3073C34.0719 21.3299 29.9865 25.3915 25.4774 24.9699C24.9544 24.9215 24.5056 24.7795 24.1309 24.5438C23.9827 24.4531 23.9603 24.3353 24.0638 24.1902C26.9972 20.0561 26.993 15.9265 24.0512 11.8014C24.0317 11.7746 24.0185 11.743 24.0126 11.7094C24.0067 11.6758 24.0083 11.6411 24.0173 11.608C24.0263 11.5749 24.0424 11.5444 24.0643 11.5189C24.0862 11.4935 24.1134 11.4738 24.1435 11.4615Z" fill="#9E00FF"/>
<path d="M19.929 21.8793C16.8783 25.7443 17.1242 30.1002 19.8457 34.1318C19.9401 34.276 19.9123 34.3826 19.7623 34.4517C14.5527 36.8301 9.45986 31.0327 11.4353 25.492C12.7398 21.8433 16.299 20.2171 19.7873 21.3613C19.8347 21.376 19.8779 21.4034 19.9129 21.441C19.9479 21.4786 19.9736 21.5253 19.9877 21.5768C20.0018 21.6282 20.0038 21.6829 19.9936 21.7357C19.9833 21.7886 19.9611 21.8379 19.929 21.8793Z" fill="#9E00FF"/>
<path d="M20.0161 25.1524C23.4317 28.5331 28.6924 27.9813 32.0854 25.0495C32.1086 25.0285 32.1362 25.0136 32.166 25.0059C32.1959 24.9982 32.227 24.998 32.2569 25.0053C32.2868 25.0127 32.3146 25.0273 32.338 25.0479C32.3614 25.0686 32.3797 25.0948 32.3914 25.1243C35.636 32.7508 25.0743 38.8622 20.3401 32.0494C19.0741 30.2258 18.7051 28.0109 19.2331 25.4049C19.25 25.3196 19.2885 25.2407 19.3447 25.1762C19.401 25.1117 19.4728 25.0641 19.5528 25.0383C19.6328 25.0125 19.718 25.0095 19.7995 25.0295C19.881 25.0496 19.9558 25.092 20.0161 25.1524Z" fill="#9E00FF"/>
<path d="M56.1526 20.1914H64.7496V23.4532V30H58.0164C55.873 30 54.0324 29.2622 52.4947 27.7867C50.9415 26.28 50.1649 24.455 50.1649 22.3116C50.1649 20.1681 50.9415 18.3509 52.4947 16.8598C54.0324 15.3842 55.873 14.6465 58.0164 14.6465H64.7263V17.9082H57.3408C56.2069 18.0635 55.2595 18.5606 54.4984 19.3993C53.7528 20.238 53.3801 21.2088 53.3801 22.3116C53.3801 23.4144 53.7528 24.3851 54.4984 25.2239C55.2595 26.0626 56.2069 26.5674 57.3408 26.7382H61.4879V23.4532H57.6669L57.5039 23.1037L56.5486 21.0535L56.1526 20.1914ZM66.8088 29.0914L71.8412 19.9585L73.9147 23.6629L70.5831 29.6738L70.3967 30H66.2962L66.8088 29.0914ZM83.6068 29.0914L84.1194 30H80.0189L79.8325 29.6738L76.7571 24.1288L75.266 21.4262L75.1962 21.3098L73.1459 17.6286V17.6053L73.309 17.3025L74.6603 14.9027L74.8234 14.5533H75.5922L75.7553 14.9027L77.0833 17.3025L83.6068 29.0914ZM99.8859 21.2399C99.9325 21.5971 99.9558 21.9621 99.9558 22.3349C99.9558 22.7076 99.9325 23.0804 99.8859 23.4532C99.7151 24.587 99.319 25.6277 98.6977 26.5752C98.0764 27.5226 97.2843 28.2992 96.3213 28.905C95.3583 29.4952 94.3099 29.8602 93.176 30H93.1527H85.9769V20.1681H89.2386V26.7382H92.9197C93.8361 26.5985 94.6283 26.2102 95.2962 25.5733C95.9796 24.921 96.4145 24.1444 96.6009 23.2435C96.663 22.9484 96.694 22.6455 96.694 22.3349C96.694 22.0398 96.663 21.7447 96.6009 21.4495C96.3834 20.3468 95.8242 19.4537 94.9234 18.7702C94.3798 18.3664 93.7818 18.1024 93.1294 17.9781C92.912 17.9315 92.6867 17.9004 92.4538 17.8849H85.9769V14.5999L92.8265 14.6232C94.5506 14.7629 96.0572 15.4075 97.3464 16.5569C98.7754 17.815 99.6219 19.376 99.8859 21.2399ZM107.254 20.1914H115.851V23.4532V30H109.118C106.974 30 105.134 29.2622 103.596 27.7867C102.043 26.28 101.266 24.455 101.266 22.3116C101.266 20.1681 102.043 18.3509 103.596 16.8598C105.134 15.3842 106.974 14.6465 109.118 14.6465H115.828V17.9082H108.442C107.308 18.0635 106.361 18.5606 105.6 19.3993C104.854 20.238 104.482 21.2088 104.482 22.3116C104.482 23.4144 104.854 24.3851 105.6 25.2239C106.361 26.0626 107.308 26.5674 108.442 26.7382H112.589V23.4532H108.768L108.605 23.1037L107.65 21.0535L107.254 20.1914ZM118.171 14.5999H131.917V17.8849H118.171V15.2289V14.5999ZM121.433 23.4299V26.7382H131.917V30H118.171V27.344V26.7382V20.1448H121.433H130.543V23.4299H121.433ZM142.714 30H139.453V20.1681H142.714V30ZM134.257 14.5999H148.119V17.8849H142.714H139.453H134.257V14.5999Z" fill="#9E00FF"/>
<path d="M158.827 19.5043H167.15V22.662V29H160.631C158.556 29 156.774 28.2858 155.286 26.8573C153.782 25.3987 153.03 23.6319 153.03 21.5568C153.03 19.4818 153.782 17.7225 155.286 16.279C156.774 14.8505 158.556 14.1362 160.631 14.1362H167.127V17.2939H159.977C158.879 17.4443 157.962 17.9255 157.225 18.7375C156.504 19.5494 156.143 20.4892 156.143 21.5568C156.143 22.6244 156.504 23.5642 157.225 24.3762C157.962 25.1882 158.879 25.6769 159.977 25.8423H163.992V22.662H160.293L160.135 22.3237L159.21 20.3389L158.827 19.5043ZM169.143 28.1204L174.015 19.2788L176.022 22.865L172.797 28.6842L172.617 29H168.647L169.143 28.1204ZM185.405 28.1204L185.901 29H181.932L181.751 28.6842L178.774 23.3161L177.331 20.6998L177.263 20.587L175.278 17.0233V17.0007L175.436 16.7075L176.744 14.3843L176.902 14.046H177.646L177.804 14.3843L179.09 16.7075L185.405 28.1204ZM190.857 25.8423H199.564V29H187.7V14.0009H190.857V25.8423ZM201.808 28.1204L206.68 19.2788L208.688 22.865L205.462 28.6842L205.282 29H201.312L201.808 28.1204ZM218.07 28.1204L218.567 29H214.597L214.416 28.6842L211.439 23.3161L209.996 20.6998L209.928 20.587L207.943 17.0233V17.0007L208.101 16.7075L209.409 14.3843L209.567 14.046H210.311L210.469 14.3843L211.755 16.7075L218.07 28.1204ZM220.337 28.0527L223.924 23.1808L225.908 25.8423L223.743 28.7519L223.563 29H219.638L220.337 28.0527ZM234.209 28.0527L234.908 29H230.983L230.803 28.7519L228.795 26.0227L227.262 23.9702L225.299 21.3087L220.698 15.0384L219.999 14.0911H223.924L224.104 14.3392L227.262 18.6247L230.442 14.3392L230.622 14.0911H234.547L233.848 15.0384L229.247 21.3087L234.209 28.0527ZM248.11 14.0686H252.035L251.336 14.9933L246.464 21.6696L246.306 21.8726V21.8952L246.193 22.0531V29H243.013V22.0531L242.9 21.8952V21.8726L242.742 21.6696L237.87 14.9933L237.171 14.0686H241.096L241.276 14.2941L244.592 18.8502L247.93 14.2941L248.11 14.0686Z" fill="#565656"/>
</svg>
